{"title":"Beroe - Sliven 26-02-2011","uid":6204666,"size":1947468046,"categoryP":"other","categoryS":"other","magnet":"?xt=urn:btih:77c3bf5485184e049e4ceedf80ed8609ea9ddf96&amp;dn=Beroe+-+Sliven+26-02-2011&amp;tr=udp%3A%2F%2Ftracker.openbittorrent.com%3A80&amp;tr=udp%3A%2F%2Fopen.demonii.com%3A1337&amp;tr=udp%3A%2F%2Ftracker.coppersurfer.tk%3A6969&amp;tr=udp%3A%2F%2Fexodus.desync.com%3A6969","seeders":1,"leechers":0,"uploader":"spiralkinda","files":1,"time":1298748897,"description":"Format                           : AVI\nFormat/Info                      : Audio Video Interleave\nFile size                        : 1.81 GiB\nDuration                         : 1h 38mn\nOverall bit rate                 : 2 638 Kbps\nWriting library                  : VirtualDub build 32706/release\n\nVideo\nID                               : 0\nFormat                           : MPEG-4 Visual\nFormat settings, BVOP            : 1\nFormat settings, QPel            : No\nFormat settings, GMC             : No warppoints\nFormat settings, Matrix          : Default (H.263)\nMuxing mode                      : Packed bitstream\nCodec ID                         : DX50\nCodec ID/Hint                    : DivX 5\nDuration                         : 1h 38mn\nBit rate                         : 2 500 Kbps\nWidth                            : 720 pixels\nHeight                           : 400 pixels\nDisplay aspect ratio             : 16:9\nFrame rate                       : 25.000 fps\nColor space                      : YUV\nChroma subsampling               : 4:2:0\nBit depth                        : 8 bits\nScan type                        : Progressive\nCompression mode                 : Lossy\nBits/(Pixel*Frame)               : 0.347\nStream size                      : 1.72 GiB (95%)\nWriting library                  : DivX 6.8.5 (UTC 2009-08-20)\n\nAudio\nID                               : 1\nFormat                           : AC-3\nFormat/Info                      : Audio Coding 3\nMode extension                   : CM (complete main)\nCodec ID                         : 2000\nDuration                         : 1h 38mn\nBit rate mode                    : Constant\nBit rate                         : 128 Kbps\nChannel(s)                       : 2 channels\nChannel positions                : Front: L R\nSampling rate                    : 44.1 KHz\nBit depth                        : 16 bits\nCompression mode                 : Lossy\nDelay relative to video          : 1s 45ms\nStream size                      : 89.9 MiB (5%)\nAlignment                        : Aligned on interleaves\nInterleave, duration             : 40 ms (1.00 video frame)\nInterleave, preload duration     : 522 ms\n\n","torrent":{"xt":"urn:btih:77c3bf5485184e049e4ceedf80ed8609ea9ddf96","amp;dn":"Beroe+-+Sliven+26-02-2011","amp;tr":["udp%3A%2F%2Ftracker.openbittorrent.com%3A80","udp%3A%2F%2Fopen.demonii.com%3A1337","udp%3A%2F%2Ftracker.coppersurfer.tk%3A6969","udp%3A%2F%2Fexodus.desync.com%3A6969"],"infoHash":"77c3bf5485184e049e4ceedf80ed8609ea9ddf96","infoHashBuffer":{"type":"Buffer","data":[119,195,191,84,133,24,78,4,158,76,238,223,128,237,134,9,234,157,223,150]},"announce":[],"urlList":[]}}